<svg fill="currentColor" xmlns="http://www.w3.org/2000/svg" width="5899" height="937" viewBox="0 0 5899 937" version="1.1">
	<path d="M 1660 32.637 C 1652.575 32.801, 1623.325 33.409, 1595 33.989 C 1566.675 34.569, 1526.850 35.460, 1506.500 35.970 C 1486.150 36.480, 1439.125 37.374, 1402 37.957 C 1312.520 39.362, 1287.406 40.812, 1263 45.982 C 1248.840 48.981, 1227.009 55.285, 1219.500 58.543 C 1217.850 59.259, 1212.675 61.486, 1208 63.492 C 1145.374 90.362, 1095.334 145.324, 1058.227 228 C 1039.730 269.212, 1023.393 332.176, 1018.010 383 C 1013.743 423.287, 1008.828 454.764, 984.437 598 C 979.179 628.875, 973.834 664.280, 970.928 687.473 C 969.827 696.258, 968.709 704.358, 968.444 705.473 C 965.921 716.069, 961.659 780.800, 962.286 799 C 963.637 838.197, 982.907 867.902, 1017.502 884.114 C 1032.429 891.109, 1045.356 893.696, 1088.500 898.321 C 1104.206 900.004, 1514.224 899.948, 1546 898.258 C 1558.375 897.600, 1581.325 896.368, 1597 895.520 C 1635.247 893.452, 1668.598 888.694, 1689.500 882.325 C 1724.717 871.594, 1744.988 861.746, 1769.500 843.460 C 1817.238 807.847, 1849.702 750.186, 1864.997 673.842 C 1866.136 668.154, 1867.909 659.900, 1868.937 655.500 C 1871.576 644.201, 1873.423 635.893, 1877.492 617 C 1879.447 607.925, 1881.662 597.800, 1882.413 594.500 C 1884.815 583.951, 1887.770 570.583, 1898.552 521.500 C 1904.351 495.100, 1911.132 464.275, 1913.621 453 C 1916.111 441.725, 1921.769 419, 1926.195 402.500 C 1952.923 302.861, 1958.447 273.130, 1958.433 229 C 1958.413 169.050, 1941.653 123.671, 1906.521 88.443 C 1876.437 58.277, 1840.941 42.109, 1792.500 36.508 C 1784.800 35.617, 1775.125 34.420, 1771 33.847 C 1763.792 32.846, 1687.935 32.019, 1660 32.637 M 5499.922 33.694 C 5499.140 33.800, 5455.075 34.106, 5402 34.372 C 5272.068 35.026, 5185.923 37.361, 5157.128 41.012 C 5103.386 47.825, 5059.493 64.684, 5021.500 93.105 C 4977.254 126.205, 4943.458 174.595, 4919.957 238.500 C 4916.508 247.877, 4915.652 250.719, 4909.569 273 C 4907.541 280.425, 4904.365 291.900, 4902.511 298.500 C 4895.891 322.060, 4885.852 357.609, 4884.013 364 C 4880.230 377.144, 4877.040 389.090, 4870.525 414.500 C 4866.859 428.800, 4863.011 443.428, 4861.975 447.006 C 4860.938 450.585, 4859.434 456.210, 4858.632 459.506 C 4857.830 462.803, 4855.819 470.675, 4854.163 477 C 4852.507 483.325, 4849.509 494.800, 4847.501 502.500 C 4845.493 510.200, 4842.499 521.675, 4840.849 528 C 4836.410 545.015, 4817.716 619.715, 4814.572 633 C 4813.075 639.325, 4811.016 647.875, 4809.997 652 C 4794.559 714.462, 4792.023 753.305, 4801.276 785.589 C 4807.521 807.383, 4821.380 830.432, 4838.475 847.457 C 4873.903 882.741, 4923.486 899.535, 5005.500 904.031 C 5033.026 905.540, 5389.058 904.759, 5418.500 903.124 C 5461.408 900.743, 5497.027 897.923, 5508.500 896 C 5544.906 889.897, 5568.191 877.597, 5586.901 854.586 C 5614.717 820.375, 5633.272 790.556, 5641.711 766.500 C 5655.770 726.425, 5651.684 714.691, 5622.432 711.130 C 5616.889 710.455, 5564.359 709.645, 5484 708.996 C 5412.775 708.420, 5316.250 707.516, 5269.500 706.986 C 5222.750 706.457, 5160.200 705.766, 5130.500 705.451 C 5057.741 704.680, 5052.560 703.931, 5046.326 693.293 C 5040.327 683.056, 5041.692 672.948, 5058.859 600.500 C 5063.043 582.845, 5094.046 461.017, 5101.103 434.500 C 5106.835 412.964, 5113.005 390.978, 5120.187 366.500 C 5131.137 329.179, 5146.439 282.739, 5151.469 271.560 C 5160.491 251.514, 5177.616 236.828, 5196.500 232.946 C 5204.974 231.203, 5240.935 230.897, 5468.500 230.629 C 5620.702 230.450, 5668.466 230.106, 5675 229.145 C 5715.690 223.160, 5747.087 207.403, 5775.153 178.881 C 5791.665 162.101, 5800.502 149.322, 5821.748 111.500 C 5828.854 98.850, 5837.052 84.450, 5839.965 79.500 C 5853.390 56.692, 5854.472 44.960, 5843.671 39.311 C 5834.908 34.727, 5833.551 34.650, 5756 34.317 C 5639.983 33.819, 5501.479 33.482, 5499.922 33.694 M 2522.500 35.053 C 2436.315 37.331, 2324.615 39.162, 2242 39.651 C 2141.075 40.250, 2141.217 40.241, 2131.744 46.301 C 2119.964 53.836, 2113.652 66.997, 2111.023 89.500 C 2109.805 99.931, 2106.004 124.103, 2103.554 137 C 2102.771 141.125, 2101.863 146.300, 2101.537 148.500 C 2101.211 150.700, 2100.069 157.225, 2098.999 163 C 2097.929 168.775, 2095.899 179.800, 2094.489 187.500 C 2093.078 195.200, 2091.074 205.775, 2090.036 211 C 2088.997 216.225, 2086.745 227.925, 2085.032 237 C 2083.319 246.075, 2081.250 256.650, 2080.435 260.500 C 2079.620 264.350, 2077.175 276.500, 2075.002 287.500 C 2070.177 311.921, 2062.083 351.270, 2058.545 367.500 C 2057.107 374.100, 2055.467 381.975, 2054.902 385 C 2054.336 388.025, 2053.013 394.325, 2051.961 399 C 2050.910 403.675, 2047.532 418.975, 2044.456 433 C 2036.595 468.837, 2027.460 506.808, 2017.028 547 C 2012.103 565.975, 2006.699 587.350, 2005.018 594.500 C 2003.338 601.650, 2001.529 609.104, 2000.997 611.064 C 2000.466 613.024, 1999.076 619.099, 1997.908 624.564 C 1996.740 630.029, 1994.706 639.450, 1993.387 645.500 C 1992.069 651.550, 1990.103 660.775, 1989.019 666 C 1987.935 671.225, 1985.913 680.900, 1984.525 687.500 C 1981.591 701.456, 1972.615 745.403, 1970.024 758.500 C 1966.696 775.324, 1959.877 808.469, 1957.989 817 C 1952.340 842.527, 1951.017 849.444, 1949.958 859 C 1947.526 880.938, 1952.172 889.024, 1969.516 893.041 C 1973.093 893.869, 2002.908 894.220, 2075.110 894.283 L 2175.720 894.372 2181.318 891.633 C 2190.472 887.154, 2195.799 878.805, 2199.160 863.668 C 2200.280 858.625, 2204.298 839.425, 2208.089 821 C 2211.880 802.575, 2216.113 782.325, 2217.496 776 C 2218.879 769.675, 2220.886 760.225, 2221.956 755 C 2223.026 749.775, 2225.287 739.200, 2226.980 731.500 C 2228.673 723.800, 2230.941 713.225, 2232.020 708 C 2233.099 702.775, 2235.113 693.325, 2236.496 687 C 2237.879 680.675, 2239.906 671.225, 2241 666 C 2242.094 660.775, 2244.070 651.550, 2245.390 645.500 C 2250.881 620.339, 2253.321 609.041, 2255 601 C 2255.976 596.325, 2257.932 587.100, 2259.346 580.500 C 2265.685 550.907, 2267.177 543.945, 2268.988 535.500 C 2270.049 530.550, 2272.937 516.825, 2275.406 505 C 2277.875 493.175, 2281.043 478.438, 2282.447 472.250 C 2283.851 466.063, 2286.095 456.163, 2287.434 450.250 C 2288.772 444.337, 2290.582 436.350, 2291.455 432.500 C 2294.507 419.046, 2311.512 349.752, 2313.542 342.500 C 2314.312 339.750, 2316.258 332.550, 2317.867 326.500 C 2322.097 310.592, 2325.891 296.698, 2328.607 287.171 C 2334.253 267.365, 2345.928 252.005, 2359.500 246.529 C 2370.166 242.225, 2354.711 242.273, 2653 245.617 C 2680.225 245.922, 2703.887 246.593, 2705.583 247.108 C 2709.848 248.404, 2714.762 253.483, 2715.975 257.850 C 2717.621 263.775, 2716.532 290.450, 2714.010 306 C 2708.398 340.604, 2700.352 370.636, 2688.354 401.762 C 2678.492 427.347, 2661.828 441.232, 2634.005 447.045 C 2625.958 448.727, 2616.601 449.257, 2573 450.502 C 2439.476 454.316, 2419.115 458.511, 2406.238 484.854 L 2402.500 492.500 2402.500 509 C 2402.500 543.341, 2412.454 576.682, 2438.028 628 C 2448.526 649.068, 2467 687.675, 2467 688.549 C 2467 688.764, 2468.072 691.317, 2469.383 694.220 C 2475.238 707.192, 2485.878 731.957, 2495.927 756 C 2498.800 762.875, 2501.765 769.861, 2502.516 771.525 C 2503.266 773.189, 2505.304 778.139, 2507.044 782.525 C 2508.783 786.911, 2510.811 791.850, 2511.549 793.500 C 2512.288 795.150, 2515.669 803.250, 2519.063 811.500 C 2541.290 865.520, 2558.957 883.794, 2596 891.078 C 2611.860 894.197, 2643.660 894.893, 2732.500 894.069 C 2808.580 893.364, 2810.661 893.293, 2817.039 891.198 C 2823.434 889.097, 2827.480 885.983, 2829.878 881.316 C 2832.570 876.075, 2830.337 861.467, 2825.013 849.500 C 2824.034 847.300, 2820.873 839.875, 2817.987 833 C 2809.188 812.034, 2806.903 806.625, 2805.523 803.500 C 2804.795 801.850, 2800.734 792.400, 2796.499 782.500 C 2792.264 772.600, 2787.999 762.700, 2787.022 760.500 C 2786.045 758.300, 2782.885 751.100, 2780 744.500 C 2777.115 737.900, 2773.966 730.700, 2773.001 728.500 C 2772.037 726.300, 2764.482 709.425, 2756.212 691 C 2739.781 654.391, 2737.261 647.817, 2736.371 639.230 C 2734.768 623.759, 2741.715 617.241, 2769.178 608.447 C 2797.375 599.418, 2802.148 597.592, 2819.091 589.360 C 2866.548 566.300, 2902.045 528.921, 2922.802 480.151 C 2925.364 474.131, 2933.623 449.146, 2937.562 435.500 C 2938.991 430.550, 2943.898 415.250, 2948.467 401.500 C 2961.640 361.860, 2964.358 352.009, 2968.061 330.500 C 2970.281 317.608, 2972.328 306.976, 2974.992 294.500 C 2991.428 217.549, 2987.686 172.673, 2961.465 132.278 C 2928.422 81.375, 2867.761 42.559, 2815 38.555 C 2770.137 35.151, 2597.172 33.080, 2522.500 35.053 M 688.500 36.081 C 682.450 36.486, 621.700 37.282, 553.500 37.851 C 409.576 39.052, 389.232 39.889, 365 45.612 C 323.657 55.375, 287.752 77.749, 261.729 109.966 C 235.112 142.919, 206.124 208.768, 185.996 282 C 184.258 288.325, 182.227 295.525, 181.485 298 C 179.268 305.382, 168.972 347.774, 163.024 374 C 161.340 381.425, 159.079 391.325, 158 396 C 156.921 400.675, 154.670 410.575, 152.999 418 C 151.328 425.425, 149.092 435.100, 148.029 439.500 C 141.320 467.282, 139.190 475.762, 133.960 495.500 C 127.617 519.441, 120.557 547.314, 116.546 564.250 C 115.146 570.163, 112.855 579.837, 111.456 585.750 C 110.057 591.663, 108.047 600.100, 106.989 604.500 C 105.931 608.900, 103.461 619.925, 101.500 629 C 99.539 638.075, 97.093 649.100, 96.064 653.500 C 93.476 664.572, 91.637 672.837, 87.498 692 C 85.538 701.075, 83.088 712.100, 82.052 716.500 C 81.017 720.900, 79.183 729, 77.977 734.500 C 76.771 740, 74.953 748.100, 73.937 752.500 C 70.747 766.314, 67.170 782.011, 64.023 796 C 62.353 803.425, 60.314 812.425, 59.491 816 C 58.668 819.575, 57.329 825.875, 56.516 830 C 55.704 834.125, 53.625 844.025, 51.898 852 C 46.211 878.251, 46.878 886.295, 55.355 893.739 C 62.050 899.617, 60.468 899.500, 133.500 899.500 L 200.500 899.500 210 896.665 C 257.454 882.504, 286.369 839.836, 315.492 741 C 317.056 735.694, 325.580 700.636, 329.473 683.500 C 330.972 676.900, 333.323 666.550, 334.698 660.500 C 344.235 618.515, 349.989 598.182, 354.547 590.355 C 362.299 577.044, 374.162 574.415, 411 577.844 C 454.707 581.912, 531.456 584.206, 629 584.360 C 727.751 584.516, 727.240 584.546, 754 576.981 C 820.247 558.252, 872.514 505.448, 891.076 438.500 C 900.405 404.854, 897.518 389.678, 880.500 382.892 L 874.500 380.500 667 379.930 C 482.571 379.423, 458.944 379.186, 454.500 377.795 C 445.813 375.076, 444.380 374.262, 440.691 369.952 C 435.676 364.093, 434.654 358.269, 435.267 339.042 C 436 316.074, 440.305 301.488, 456.259 267.920 C 467.592 244.074, 471.657 242.092, 510.500 241.465 C 609.822 239.862, 732.961 238.865, 795.500 239.156 C 853.905 239.427, 870.870 239.222, 876 238.181 C 904.657 232.367, 927.072 219.114, 944.961 197.408 C 952.689 188.032, 1029.990 72.402, 1032.390 66.628 C 1037.038 55.448, 1031.734 42.367, 1020.500 37.303 C 1016.702 35.591, 1008.489 35.496, 858 35.423 C 770.825 35.380, 694.550 35.677, 688.500 36.081 M 3218.500 36.759 C 3180.559 39.215, 3156.494 58.524, 3140.927 99 C 3139.129 103.675, 3132.167 120.775, 3125.457 137 C 3109.548 175.468, 3106.258 183.879, 3103.385 193.426 C 3096.516 216.254, 3104.219 230.678, 3125 233.902 C 3128.931 234.512, 3179.320 235.145, 3252.500 235.506 C 3404.830 236.256, 3479.232 237.349, 3484.219 238.912 C 3492.174 241.404, 3498 249.245, 3498 257.457 C 3498 262.579, 3493.989 268.022, 3487.153 272.177 C 3465.575 285.294, 3428.998 316.284, 3389.460 354.947 C 3358.679 385.047, 3342.996 399.627, 3291.576 445.947 C 3238.262 493.972, 3233.225 498.696, 3195 536.504 C 3144.374 586.578, 3103.433 623.894, 3048.538 670 C 3012.141 700.569, 3007.158 705.004, 2999.669 713.492 C 2976.025 740.288, 2962.304 771.303, 2955.511 813.303 C 2946.774 867.330, 2951.849 885.574, 2977.240 891.416 C 2983.252 892.799, 3018.786 892.972, 3306.240 893.015 C 3625.280 893.063, 3628.595 893.044, 3638 891.055 C 3653.533 887.769, 3667.271 881.748, 3677.500 873.743 C 3708.626 849.385, 3739.072 808.924, 3765.413 756.912 C 3774.208 739.545, 3774.320 739.231, 3774.354 731.912 C 3774.404 721.067, 3770.672 715.394, 3760.542 710.915 C 3755.866 708.847, 3754.846 708.773, 3742.542 709.611 C 3735.369 710.100, 3702.950 710.500, 3670.500 710.500 C 3638.050 710.500, 3549.175 710.875, 3473 711.334 C 3317.719 712.269, 3330.415 712.804, 3325.270 705.102 C 3321.482 699.432, 3322.172 695.485, 3328.630 685.876 C 3336.819 673.691, 3343.715 667.146, 3359.478 656.599 C 3370.398 649.292, 3377.261 643.625, 3390.500 630.986 C 3414.106 608.448, 3433.815 591.582, 3490.977 545 C 3527.612 515.145, 3557.551 488.709, 3611.022 439 C 3713.894 343.364, 3789.169 279.284, 3845.293 239.570 C 3867.551 223.820, 3878.821 208.722, 3890.507 179 C 3895.446 166.437, 3898.142 160.040, 3907.994 137.500 C 3913.876 124.041, 3918.149 114.733, 3924.747 101 C 3940.908 67.363, 3943.060 60.078, 3939.425 51.305 C 3937.181 45.892, 3933.458 42.947, 3925.686 40.440 C 3921.018 38.933, 3908.523 38.684, 3800.500 37.944 C 3685.490 37.156, 3226.793 36.222, 3218.500 36.759 M 4152 41.451 C 4122.197 49.410, 4096.357 73.121, 4070.755 116 C 4059.473 134.897, 4056.197 142.483, 4051.975 159.500 C 4051.019 163.350, 4047.890 175.050, 4045.021 185.500 C 4042.152 195.950, 4037.860 211.700, 4035.483 220.500 C 4033.106 229.300, 4028.826 245.050, 4025.973 255.500 C 4023.119 265.950, 4019.976 277.650, 4018.987 281.500 C 4017.998 285.350, 4014.855 297.050, 4012.001 307.500 C 4001.094 347.443, 3997.767 359.726, 3996.020 366.500 C 3995.028 370.350, 3991.872 382.050, 3989.008 392.500 C 3986.144 402.950, 3982.990 414.650, 3982 418.500 C 3981.009 422.350, 3978.760 430.675, 3977 437 C 3975.240 443.325, 3972.991 451.650, 3972 455.500 C 3971.010 459.350, 3967.856 471.050, 3964.991 481.500 C 3962.126 491.950, 3959.200 502.750, 3958.489 505.500 C 3957.778 508.250, 3955.533 516.575, 3953.500 524 C 3951.467 531.425, 3949.224 539.750, 3948.515 542.500 C 3947.807 545.250, 3944.656 556.950, 3941.515 568.500 C 3938.373 580.050, 3935.221 591.750, 3934.511 594.500 C 3933.800 597.250, 3930.919 607.938, 3928.109 618.250 C 3925.299 628.563, 3920.710 645.438, 3917.911 655.750 C 3915.112 666.063, 3911.102 680.800, 3909 688.500 C 3906.898 696.200, 3902.888 710.938, 3900.089 721.250 C 3897.290 731.563, 3892.702 748.438, 3889.892 758.750 C 3887.083 769.063, 3883.980 780.650, 3882.997 784.500 C 3882.015 788.350, 3880.231 795.100, 3879.033 799.500 C 3870.723 830.033, 3864.146 856.636, 3863.001 864.338 C 3860.260 882.786, 3865.693 891.253, 3882.002 893.952 C 3886.439 894.686, 3962.546 895.194, 4122 895.555 C 4250.425 895.845, 4371.700 896.514, 4391.500 897.042 C 4479.246 899.380, 4535.376 897.606, 4557 891.811 C 4594.635 881.726, 4620.215 853.651, 4653.403 786 C 4674.812 742.359, 4674.473 725.833, 4651.958 715.599 C 4638.967 709.694, 4644.994 709.826, 4402 710.098 C 4155.512 710.373, 4175.639 710.920, 4168.244 703.752 C 4159.405 695.185, 4161.300 682.432, 4179.948 625 C 4180.931 621.975, 4182.963 614.325, 4184.465 608 C 4192.578 573.834, 4201.492 562.286, 4224.793 555.755 L 4232.500 553.595 4403.500 552.999 L 4574.500 552.403 4584.500 549.754 C 4630.011 537.697, 4667.704 507.026, 4686.815 466.500 C 4688.631 462.650, 4690.483 458.810, 4690.932 457.966 C 4698.424 443.870, 4701.463 408.786, 4696.144 397.798 C 4693.141 391.594, 4686.634 385.792, 4679.419 382.885 L 4673.500 380.500 4508.500 380.263 C 4260.868 379.908, 4262.705 379.931, 4255.810 377.175 C 4239.621 370.705, 4238.846 356.026, 4252.503 314.500 C 4254.312 309, 4257.233 299.550, 4258.994 293.500 C 4266.157 268.891, 4267.315 265.312, 4269.523 260.955 C 4275.369 249.418, 4286.889 240.630, 4301 236.946 L 4309.500 234.726 4515.500 234.613 C 4704.788 234.509, 4722.027 234.364, 4728 232.823 C 4756.210 225.546, 4773.126 216.039, 4792.512 196.566 C 4806.754 182.259, 4812.562 174.004, 4829.599 143.854 C 4846.344 114.221, 4855.136 99.715, 4868.247 80.089 C 4878.129 65.297, 4879.830 59.315, 4876.452 51.232 C 4874.334 46.162, 4871.296 43.104, 4866.167 40.879 C 4861.953 39.051, 4852.242 39.002, 4511.167 39.091 L 4160.500 39.181 4152 41.451 M 1547 225.647 C 1543.425 225.823, 1522.725 226.667, 1501 227.522 C 1428.387 230.381, 1372.747 234.128, 1360.500 236.983 C 1335.465 242.820, 1313.913 258.110, 1299.161 280.500 C 1283.325 304.535, 1269.932 341.001, 1265.455 372.273 C 1262.025 396.236, 1258.150 416.240, 1252.335 440 C 1249.832 450.230, 1245.933 465.038, 1234.693 507 C 1227.513 533.809, 1219.517 566.500, 1217.083 579 C 1216.495 582.025, 1214.877 589.900, 1213.489 596.500 C 1209.199 616.901, 1204.978 639.041, 1199.955 667.500 C 1196.477 687.205, 1197.516 694.907, 1204.571 701.701 C 1212.767 709.595, 1208.380 709.274, 1304.651 709.034 C 1377.404 708.854, 1389.925 709.030, 1390.651 710.246 C 1391.376 711.463, 1397.538 711.549, 1433 710.837 C 1462.434 710.247, 1482.932 710.366, 1503.500 711.248 C 1545.641 713.054, 1560.546 712.797, 1570.893 710.085 C 1590.649 704.906, 1602.800 694.892, 1612.457 675.832 C 1619.005 662.908, 1622.302 651.477, 1629.568 616.500 C 1631.066 609.286, 1641.161 561.654, 1648.112 529 C 1651.998 510.746, 1655.322 495.613, 1659.093 479 C 1662.210 465.270, 1663.398 459.914, 1674.508 409.500 C 1680.326 383.100, 1686.198 356.325, 1687.557 350 C 1688.915 343.675, 1690.477 336.700, 1691.027 334.500 C 1691.577 332.300, 1692.674 327.125, 1693.465 323 C 1694.256 318.875, 1696.578 308.075, 1698.625 299 C 1703.733 276.358, 1704.239 252.797, 1699.799 244.380 C 1695.187 235.638, 1687.486 230.758, 1673 227.399 C 1666.402 225.869, 1658.768 225.640, 1609.500 225.493 C 1578.700 225.401, 1550.575 225.470, 1547 225.647 M 3086.821 324.497 C 3025.142 334.877, 2986.115 398.048, 3004.677 457.459 C 3024.013 519.346, 3093.544 548.734, 3151.300 519.432 C 3195.987 496.761, 3218.224 444.232, 3203.323 396.541 C 3187.758 346.724, 3137.912 315.899, 3086.821 324.497 M 3060 423.939 L 3060 481 3075 481 L 3090 481 3090 458.950 L 3090 436.900 3095.652 437.200 L 3101.305 437.500 3114.773 459.250 L 3128.240 481 3145.120 481 C 3154.404 481, 3162 480.819, 3162 480.597 C 3162 480.375, 3155.644 470.138, 3147.876 457.847 C 3131.365 431.722, 3132.204 433.417, 3135.390 432.617 C 3136.771 432.270, 3140.565 429.520, 3143.822 426.504 C 3151.919 419.008, 3154.408 413.247, 3154.408 402 C 3154.408 390.790, 3151.913 384.986, 3143.907 377.574 C 3133.427 367.871, 3132.031 367.586, 3093.250 367.204 L 3060 366.878 3060 423.939 M 3090 402.500 L 3090 413 3102.750 412.998 C 3112.886 412.997, 3116.217 412.638, 3118.999 411.248 C 3126.185 407.657, 3126.763 398.761, 3120.102 394.284 C 3116.986 392.189, 3115.598 392, 3103.352 392 L 3090 392 3090 402.500" stroke="none" fill="currentColor" fill-rule="evenodd"/>
</svg>